# xmcd
#
# Track frame offsets:
# 150
# 12408
# 24803
# 37004
# 47470
# 64304
# 76148
# 94307
# 108096
# 116078
#
# Disc length: 1719 seconds
#
#
# Revision: 0
# Processed by: cddbd v1.5.2PL0 Copyright (c) Steve Scherf et al.
# Submitted via: FreeRIP 2.951 
#
DISCID=7406b50a
DTITLE=Johnny Cash - American Music Legends
DYEAR=2006
DGENRE=Country
TTITLE0=Folsom Prison Blues (live)
TTITLE1=Jackson (with June Carter)
TTITLE2=Understand Your Man
TTITLE3=Daddy Sang Bass (with The Statler Brothers)
TTITLE4=A Boy Named Sue (live)
TTITLE5=Ring of Fire
TTITLE6=One Piece at a Time
TTITLE7=Don't Take Your Guns to Town
TTITLE8=Five Feet High and Risin'
TTITLE9=Man in Black
EXTD=Cracker Barrel
EXTT0=
EXTT1=
EXTT2=
EXTT3=
EXTT4=
EXTT5=
EXTT6=
EXTT7=
EXTT8=
EXTT9=
PLAYORDER=
